<svg xmlns="http://www.w3.org/2000/svg" version="1.0" width="512.000000pt" height="512.000000pt" viewBox="0 0 512.000000 512.000000" preserveAspectRatio="xMidYMid meet">
    <g transform="translate(0.000000,512.000000) scale(0.100000,-0.100000)" fill="#27273e" stroke="none">
    <path d="M2235 5105 c-462 -60 -885 -237 -1255 -523 -117 -91 -316 -287 -413 -407 -276 -342 -459 -746 -537 -1186 -28 -156 -39 -531 -21 -702 43 -399 182 -790 398 -1122 98 -150 184 -257 318 -394 419 -430 948 -690 1550 -760 134 -16 460 -13 605 4 748 93 1416 512 1833 1150 210 321 344 690 392 1075 20 162 20 477 0 640 -92 742 -510 1412 -1140 1826 -329 216 -695 350 -1085 399 -152 18 -501 18 -645 0z m803 -433 c556 -121 987 -507 1162 -1040 56 -173 74 -287 74 -482 -1 -298 -68 -541 -224 -805 -81 -137 -124 -234 -157 -351 l-27 -99 -6 -655 c-4 -575 -7 -659 -21 -690 -22 -47 -58 -84 -108 -109 -41 -21 -48 -21 -635 -19 l-594 3 -44 30 c-28 20 -52 49 -70 84 -28 54 -28 57 -28 244 0 292 -4 297 -270 297 -221 0 -326 11 -426 45 -225 75 -417 282 -469 506 -8 37 -19 118 -23 181 -7 88 -13 120 -28 140 -34 47 -72 62 -166 66 -76 4 -90 7 -109 28 -44 47 -34 71 117 304 185 287 183 281 184 575 0 440 37 638 165 900 152 311 383 549 685 704 141 72 232 105 375 136 154 33 158 33 365 30 138 -3 209 -9 278 -23z"/>
    <path d="M2262 4018 c-9 -9 -12 -83 -12 -273 0 -301 -3 -292 89 -297 54 -3 54 -3 68 -45 9 -25 22 -45 34 -48 15 -5 18 -13 14 -43 -2 -20 -7 -77 -10 -127 -17 -259 -87 -521 -170 -628 l-26 -35 22 -36 21 -36 -37 0 c-78 0 -135 -55 -135 -129 0 -53 18 -84 64 -112 l31 -19 -27 0 c-33 0 -48 -24 -48 -77 0 -78 -38 -74 545 -71 l520 3 0 70 0 70 -35 6 c-19 4 -29 7 -22 8 30 3 72 44 83 82 25 83 -23 153 -115 165 -50 7 -52 10 -31 38 21 28 19 38 -19 94 -82 122 -142 368 -162 660 -7 101 -6 102 19 122 14 11 28 35 31 55 7 35 7 35 60 35 93 0 91 -8 94 276 2 137 0 259 -3 272 -5 22 -9 23 -83 20 l-77 -3 -3 -65 c-4 -84 -18 -100 -87 -100 -75 0 -89 14 -95 97 l-5 68 -75 0 -75 0 -6 -69 c-7 -81 -20 -96 -89 -96 -72 0 -90 19 -90 94 0 35 -5 67 -12 74 -16 16 -130 16 -146 0z"/>
    </g>
</svg>